<svg xmlns="http://www.w3.org/2000/svg" width="1024" height="768"><g fill="none" fill-rule="evenodd"><path fill="#FCEC0E" d="M621.82 498.24c-1.61 23.57-33.6 35.83-53 40.86 3.89-23.13 8.91-47.1 5.79-70.55a427 427 0 0 0-3.83-23.07q-.8-4.25-1.66-8.48c-.14-.69-1.27-3.7-.9-4.38.63-1.22 6.06-1.03 7.44-.98 3.56.14 7.06 1.04 10.32 2.47 6.85 2.99 12.63 8.14 17.38 13.82 11.22 13.41 19.67 32.54 18.46 50.31M584.78 338c-18.57 11-40.93 16.9-62.11 19.77-32.27 4.39-65.21-.66-96.76-7.65a403 403 0 0 1-23.1-5.74 109 109 0 0 0 18.23 62.26c10.15 15.41 23.4 28.3 34.99 42.57 10.78 13.3 19.48 28.29 19.91 45.83.18 7.32-.42 14.02-6.55 18.77-6.16 4.76-14.48 6.53-22.02 7.62-18.87 2.72-38.64 1.25-57.4-1.75-3.64-.58-7.27-1.24-10.87-2.07-4.08-.94-5.5-2.04-8.92 1.02-7.35 6.6-10.72 16.52-12.4 26-3.11 17.77-2.05 38.49 2.45 56.01 4.33 16.89 24.8 26.24 39.95 30.32 45.73 12.3 96.17-4.69 131.26-34.94q1.14-.99 2.26-2.02a182 182 0 0 0 8.19 15.22 74 74 0 0 0 6.86 9.93c.94 1.1 2.04 2.59 3.33 3.3 2.4 1.35 4.84.36 7.55-.1 20.03-3.48 40-8.06 59.05-15.26 28.94-10.95 54.9-28.98 68.62-57.47 6.94-14.4 10.55-30.16 12.3-45.97 2-18.16 2.44-36.72-2.67-54.42-9.36-32.43-33.25-58.72-59.4-79-16.2-12.54-33.99-23.88-52.75-32.23"/><g fill="#52277F"><path d="M911.98 123.25c-4.23 1.68-8.79 2.15-13.3 2.48-3.52.26-6.3 1.67-9.62 1.75-9.27.23-18.57.64-27.8 2.03-9.26 1.39-17.79-.43-25.1 6.53-2.6 2.48-5.87 5.32-4.3 9.32.71 1.83 1.73 3.14 2.32 5.1a50 50 0 0 0 2.49 6.44c1.87 4.06 11.23 19.16 3.63 21.01-8.23 2-19.4-.34-27.34-2.63-4.63-1.33-9.18-2.9-13.75-4.45-3.6-1.22-8.35-1.91-11.68-3.83-2.2-1.27-2.66-3.43-4.12-5.5-2.66-3.74-5.14-6.93-8.57-10.05-7.11-6.47-16-10.86-24.78-14.72-.56-.25-1.6-.83-2.2-.89-.67-.06-1.4.62-1.82.54-1.17-.23-1.58-.97-2.86-1.7-1.72-.97-8.73-4.22-9.96-1.66 1.15-3.36 1.99-2.4 5.1-1.9 1.36.21 2.28-.41 3.5-.35 1.14.05 1.6.7 2.55.87 1.73.32 3.35.08 5.15.07q.74-1.61 2.07.02l1.5.49c1.8.5 3.73.4 5.57.54 2.77.22 10 3.6 11.38.18 1.48-3.65-3.02-4.56-3.77-7.1-.73-2.5 2.7-3.97 4.07-5.48 1.57-1.72 2.53-3.23 4.37-4.74 1.08-.89 2.5-1.72 3.29-2.9.74-1.09.7-2.84 1.66-3.75 1.13-1.08 1.3-.33 2.34-.86 2.03-1.02 1.13-.97 2.33-2.37 1.03-1.2 1.79-1.16 3.13-2.08 1.96-1.35 2.65-3.97 4.56-5.42 1.4-1.06 3.62-1.06 4.85-2.15.72-.65.5-1.7 1.12-2.31 1.2-1.18 2.02-.7 3.51-1.09 2.52-.65 3.34-2.04 5.2-3.66 1.7-1.47 2.77-1.46 4.89-2.08 2.9-.83 4.77-3.01 7.39-4.3 2.46-1.2 5-2.05 7.5-3.34 1.8-.93 3.53-1.5 5.18-2.45.55-.32.6-1.5 1.31-1.65.83-.19 1.48 1.18 2.36 1.25 1.83.15 3.92-1.88 5.12-3.06.52-.51 1.23-1.9 1.9-2.18 1.41-.6 2.25.59 3.5.12 1.77-.66 1.07-2.58 2.15-3.64.94-.92 2.94-.86 4.62-.57 6.75 1.18-3.76 5.95-5.73 6.91-3.32 1.63-27.5 13.45-21.85 19.34 3 3.12 10.3.77 13.56-.05 5.7-1.44 11.65-4.21 17.5-4.85.72-.08 2.88.44 3.46.22 1.33-.51 1-1.53 2.08-2.07 1.63-.8 4.95-.76 6.6-.58 1.3.14 2.7.91 4.02.8 1.45-.1 2.84-.95 4.28-1.22 2.45-.46 5-.23 7.47-.16 3.57.1 10.7.64 5.52 5.38-4.2 3.83-11.45 5.49-16.74 7.16-7.82 2.47-15.5 4.72-23.23 7.54-5.26 1.92-16.48 5.29-10.22 12.48l1.85-1.75c.74.74 1.5 2.18 2.66 2.22.97.03.62-1.01 1.54-1.34 2.9-1.03 6.86-.95 9.9-1.14 7.65-.49 15.27-1.5 22.92-1.81 7.2-.3 14.5.09 21.56 1.6 1.82.39 18.76 4.84 12.21 7.44m-62.5 73.95c.38 3.21-1.04 5.81-1.44 8.91-.48 3.75-.13 7.05-1.19 10.78-2.06 7.24-3.53 14.66-5.75 21.86-3.92 12.72-10.24 23.95-16.74 35.49-3.31 5.88-8.3 10.74-12.87 15.66-4.67 5.04-8.4 10-14 14.15-11.17 8.27-23.22 15.64-36.45 20.1-13.84 4.69-28.4 6.1-42.94 5.51-6.45-.26-13.29.39-19.64-.65a275 275 0 0 1-20.7-4.12c-12.19-3-23.92-8.11-35.82-12.67-13.29-5.1-25.25-11.6-37.36-18.94-3.21-1.94-6.6-2.85-9.6-5.2a142 142 0 0 0-7.7-5.69c-3.05-2.07-5.98-4.34-9.1-6.32-1.88-1.17-4.5-2.33-5.48-4.46-1.35-2.94.27-6.63 1.11-9.48 1.1-3.7 2.26-7.37 3.58-11 2.22-6.16 7.9-15.65 4.78-22.16-6.58 4.07-9.47 12.08-12.28 18.88-3.36 8.13-5.7 16.23-6.2 25.05a128 128 0 0 0 8.38 52.93c.95 2.46 2.63 5.12 1.4 7.74-1.3 2.76-4.81 5.09-7.51 6.28-8.55 3.77-17.12 4.87-26.05 6.95-2.43.57-5.09 2.27-7.37 2.49-1.54.14-2.81-.36-4.57-.35s-3.16 1-4.74 1.11c-1.38.1-2.61-.71-3.93-.64-2.95.17-3.5 5.23-4.96.78-.26.18-1.73 1.84-1.91 1.84-.42 0-1.15-1.23-1.55-1.45-.78-.43-1.8-.46-2.67-.57a17 17 0 0 0-5.86.16c-3.5.82-7 .48-10 .42-.67-.02-1.15.53-2 .5-.38-.02-.94-.7-1.35-.8-2.36-.61-4.81-.16-7.22-.3-5.65-.3-11.1-.45-16.63-1.7-11.3-2.56-22.84-3.08-34.2-5.42-5.78-1.2-11.44-1.84-17.13-3.42-2-.55-4.06-.81-5.83-1.57-1.7-.72-1.03-1.68-3.66.25-1.18-2.9-1.32-2.6-4.17-3.56-1.1-.37-3.64-1.29-4.46-2.02a90 90 0 0 1-1.99-5.02c-.73-2.63-.12-5.64.19-8.29.69-5.97 1.68-11.9 1.74-17.91.03-2.66.5-2.74 1.33-4.74.26-.62 1-.57 1.07-1.51.08-1.26-1.2-2.14-1.06-3.6.18-1.98 2.17-3.99 2.86-5.83.84-2.22.83-4.57 1.33-6.87.67-3.05 1.96-5.92 2.61-8.99.56-2.6.61-4.66 2-6.9 1.38-2.22.97-4.04 2.07-6.25 1.02-2.04 2.3-2.77 2.99-5.22a55 55 0 0 1 7.84-16.86c3.18 12.63 6.56 25.67 15.4 35.65 3.65 4.11 8.35 8.26 13.84 9.5 6.22 1.42 11.18-2.24 15.23-6.58 9.64-10.34 13.63-21.89 14.21-35.91.15-3.49.12-6.98.08-10.47-.02-1.55-.82-5.53.24-6.84 1.17-1.43 4.5-.53 6.23-1.48 2.13-1.16 4.47-4.27 3.52-6.83 5.67 2.57 11.1 5.95 17.41 6.67 2.5.28 5.16-.15 7.4-.27-.07 0 1.73.37 1.84.4q.66-.77 1.44-.38.68.08 1 .74c9 .9 18.06-3.54 25.76-8.25 4.5-2.75 9.44-6.83 10.7-12.18.45-1.92.06-3.72 2.04-4.7 1.6-.78 4.7.36 6.4.48 5.95.44 11.83-.12 17.65 1.65 3.55 1.08 9.74 8.68 12.22 3.34 1.07 1 .49 2.8 1.63 3.78 1 .86 4.35 1.46 5.73 2.19 2.13 1.13 3.39 2.64 5.25 4 2.3 1.67 4.7 1.8 6.93 3.76 7.7 6.8 16.71 11.73 25.31 17.36 10.2 6.7 19.23 14.58 30.17 20.03 11.2 5.58 22.02 10.24 34.25 13.14a107 107 0 0 0 16.94 2.82c2.68.2 5.25.1 7.84.9 1.57.5 2.08.74 3.63.78.9.03 2.2-.49 3.31-.47 2.28.04 3.44-.05 5.5.7a20 20 0 0 0 6.91 1.44c3.05.09 4.85-1.08 7.62-1.8 2.23-.59 4.24-.31 6.23-1.52 8.88-5.37 16.02-13.57 20.67-22.88 5.35-10.69 9.46-23.71 10.3-35.69.48-6.85-1.03-13.53-3.65-19.83-.74-1.77-5.17-9.33-3.8-10.7 1.55-1.57 6.61 2.01 8.04 2.79 4.54 2.46 12.72 3.25 15.9 7.4.81-1.56 5.31.74 6.75 1.4 1.2.53 1.54 1.5 3.04 1.61 1.42.11 2.88-1.02 4.18-1.38-.95 2.66 2.24 2.78 4.44 2.92 1.57.1 3.27-.15 4.67-.25 2.7-.19 2.74-.8 5.2-2.17q-.15 1.52.32 2.96c1.58-2.29 4.59-.7 6.72-1.7-1.54-2.34 5.04-2.98 6.57-2.5 3.86 1.25 1.25 6.17 1.59 9.01M547.37 357.97c2.54-.76 5.1-1.45 7.66-2.18-1.94 1.78-3.94 4.98-6.7 5.48-3.34.6-4.65-2.2-.96-3.3m-125.69 1.27c4.29.51 8.96.12 12.71 2.65-1.83 2.1-3.02 4.31-6.07 3.1-2.57-1-4.68-3.9-6.64-5.75m143.2 115.33c-2.82-2.52-2.45-3.65-1.13-6.92.57-1.4 1.47-5.77 3.6-4.5.76.46 1.68 5.22 1.82 6.18.3 2.16-1.04 8.17-4.3 5.24m15.86-14.66c-.99-3.65-.95-7.63-1.93-11.37-1.03-3.96-2.3-7.92-2.67-12 14.87 2.62 23.32 17.38 29.76 29.7 3.42 6.54 6.78 13.78 8.07 21.1 1.26 7.12-.93 12.53-3.47 18.89-1.29 3.24-3.43 4.37-5.93 6.5-2.2 1.9-3.04 5.11-5.34 6.82-1.7 1.26-3.92 1.91-5.7 3.19q-2.62 1.9-5.34 3.67c-2.08 1.35-8.3 6.24-11.1 5.2-2.1-.79-1.16-3.36-.64-4.97a82 82 0 0 0 2.59-10.2 200 200 0 0 0 3.3-28.42c.47-9.38.9-18.95-1.6-28.1M568.3 502.5c.22.47 1.15 4.43-.92 3.62-1.44-.57.7-2.89.92-3.62m8.76-157.35c1.75-.73 2.46 1.42 4 1.48 2.05.09 2.48-2.19 4.63-2.26 5.25-.16 12.87 4.92 17.14 7.57-2.1 2.64-2.96 5.35-1.92 8.6.92 2.87 4.42 6.08 4.3 9.12-.14 3.05-3.93 5.01-5.1 7.72-1.1 2.5-1.5 7.48 1.84 8.57 5.77 1.9 7.09-8.9 11.46-8.99 1.87-.03 4.3 3.48 5.64 4.57 3 2.45 6.4 4.24 9.9 5.87 2.36 1.1 5.65 3.25 7.4.3 1.4-2.36.26-6.1-1.1-8.13-1.57-2.34-15.6-13.01-14.71-13.95.47-.5 3.96.88 4.46 1.3 1.12.95 1.53 2.49 2.65 3.5 1.7 1.53 3.92 2.14 6.03 2.86 4.42 1.48 7.21 6.7 11.49 9.13 2.47 1.4 3.97 4.09 6.06 6.17 2.73 2.73 5.52 5.59 5.1 9.6-.28 2.8-.7 9.28-2.26 11.62-1.71 2.55-4.56 1.58-7.15 2.18-2.92.67-5.26 2.95-4.68 6.21.6 3.38 3.31 3.63 6.14 3.71 7.97.24 5.04 5.3 7.82 10.87 1.51 3.02 4.03 4.2 5.77.67 1.4-2.84-1.1-7.33.41-9.76 1.85-2.96 11.73-2.15 13.8.15 1.55 1.74 2.38 4.14 3.94 5.96 2.36 2.77 3.33 6.65 4.75 10.05q2.25 5.4 3.98 11c.8 2.62 2.56 6.77-1.63 4.53-2.93-1.56-5.12-5.1-8.82-5.2-3.67-.11-5.76 3.7-4.69 7.01 1.04 3.2 5.77 4.62 6.31 7.87.6 3.56-5.49 7.18-7.33 9.8-4.26 6.02-.7 12.8 6.28 7.69 2.47-1.82 5.06-5.47 7.85-6.61 4.42-1.82 4.4 4.9 6.5 7.37 1.15 1.32 1.56-.03.88 1.96-.25.73-1.5.96-1.65 1.87-.1.67.5 1.02.52 1.54.07 1.75.07 2-.32 3.9-.44 2.11-.28 4.73-.41 6.88-.3 4.9-.37 9.57-.88 14.47-.28 2.72-.88 8.27 2.33 9.6-1.14 1.8-2.67 6.78-4.92 6.4.19 1.19.08 2.7 1.23 3.47l.82-2.16c.63 1.64.08 1.83.04 2.96.05-1.4-1.26 1.93-.55 1.52-.6.5-1.4.8-2.31 1.45-1.27.9-1.94 2.17-2.92 3.4-1.78 2.23-1.68 4.49-3.24 6.81-2.21 3.3-5.05 6.56-7.38 9.85-1.9 2.69-5.51 4.24-7.03 7.12-.97 1.84-1.35 3.97-3 5.26-2.36 1.85-5.52 3.59-8.09 5.5-1.61 1.2-2.84 2.86-4.45 4.03-.81.59-3.27 1.18-3.27 2.39-3.1-.87-5.28-4.03-7.7-5.95-1.63-1.28-5.5-2.95-5.26-5.52.19-2.1 3.18-4.72 3.87-6.92.58-1.87 1.4-5.36-.22-6.96-3.4-3.35-7.24 3.84-9.06 5.76-3.76 3.95-5.35-.03-8.44-2.9-4.93-4.58-8.03.17-6.3 5.87.88 2.89 4.23 5.46 4.45 8.41.24 3.24-3.27 4.87-4.66 7.46-1.31 2.44-1.92 6.72.55 8.74 2.72 2.23 5.08-.4 6.86-2.46 1.38-1.6 2.91-5.11 5.16-5.31 2.8-.25 7.41 4.85 9.55 6.43-3.25.94-5.2 3.66-7.95 5.4-3.54 2.25-8.49 2.78-12.45 4.32-3.74 1.46-7.1 2.64-10.66 4.45-4.22 2.13-9.38 2.67-13.85 4.23-3.99 1.39-7.78 3.34-11.85 4.5-4.6 1.29-9.36 2.07-14 3.24-3.96 1-8.6 1.96-12.68 1.97-4.13 0-4.05-2.55-5.37-5.96-1.57-4.05-4.16-7.6-5.82-11.55-1.58-3.75.8-5.18 3.09-8.05 2.15-2.7 1.58-3.13 4.35-1.23 3.65 2.5 6.07.8 8.9-2.07 2.53-2.56 3.46-4.68 7.1-2.9s7.1 4.68 11.02 5.84c3.08.92 5.37.25 5.89-3.12.56-3.64-1.52-6.22-4.14-8.38-1.99-1.65-6.34-3.6-7.07-6.27-.76-2.81 3.28-6.91 3.7-10.06.55-3.97-1.16-6.89-4.92-4.14-2.74 2-4.55 6.32-8.35 6.59 1.06-4.42 3.34-8.35 5.3-12.4 1.64-3.39 3.05-7.24 7.46-7.62 1.43-.12 2.36.03 3.73-.21 1.8-.33 4.24-.59 6.17-1.07 4.53-1.15 8.53-4.65 12.7-6.65.96 2.57 2.65 9.9 6.54 5.62 2.89-3.16-.3-8.61 2.35-12.13 5.47-7.27 17.4-1.93 24.59-5.68 3.13-1.63 5.68-6.83 1.26-8.4-2.57-.92-10.02 2.46-11.58-.03-1.1-1.78 3.53-8.73 4.1-10.64 1.74-5.94 1.45-12.11 1.45-18.23 3.5 1.43 7.93 4.78 11.7 5.24 3.88.47 4.57-4.08 3.55-7.07-1.4-4.13-6.07-7.5-9.27-10.16-1.4-1.17-5.1-3.05-5.87-4.83-.8-1.84.34-2.73 1.24-4.32 1.4-2.5 4.79-8.95 1.1-11.28-3.4-2.15-5.3 3.87-7.46 5.16-3.67 2.19-4.93-2.82-6.4-5.37-2.64-4.63-6.31-8.77-9.6-12.93-3-3.8-4.85-6.36-5.3-11.2-.32-3.66-1.07-6.5 3.24-7.32 7.66-1.48 18.86 2.15 25.07-4.07 3.27-3.27.94-6.64-3.18-6.47-5.4.22-10.55.48-15.99.04-2.9-.23-8.94.47-10.4-2.5-1.88-3.85 1.3-10.02-2.16-13.38-4.41-4.3-5.5 5.41-5.64 8.1-.11 1.95.39 4.92-.83 6.61-1.13 1.58-3.2 1.55-4.88 2.12-4.22 1.44-6.4 6.63-.8 7.73 1.88.37 4.51-.17 6.08 1.23 1.64 1.46 1.01 4.06 1.17 6.03-3.93-4.55-12.1-2.53-17.4-4.22-2.8-.89-3.28-2.08-4.46-4.79-1.42-3.28-4.67-7.43-4.8-11.06-.1-3.08 2.46-5.4 3.66-8.06 1.03-2.27 1.96-5.98 1.8-8.54-.36-6.17-11.49.13-13.78 2.49-4.16 4.28-9.28 9.82-7.03 15.89 2.01 5.41 3.08 8.48-3.9 8.06-2.55-.16-7.92.35-9.9-.73-1.47-.8-.92-2.24-.97-4.32-.04-1.8.1-4.53-1.06-6.1-4.07-5.55-5.02 8.24-7.3 9.73-3.58 2.33-11.13-.11-10.55 6.82.5 6.06 8.7 3.58 10.97 8.8 1.09 2.51.86 5.44 2.23 7.86 1.96 3.46 4.37 3.27 5.67-.33.91-2.53-.3-5.13.4-7.52 1.01-3.45 5.84-3.13 8.8-3.52a56 56 0 0 0 10.19-2.5c4.23-1.36 4 .88 4.69 4.14.8 3.78 2.02 7.42 2.77 11.25.7 3.58 2.55 7.43 2.85 11 .23 2.73-.7 2.49-2.96 4.06-2.47 1.73-5.2 6.2-8.06 6.95-4.32 1.1-8.68-8.77-12.6-3.72-1.7 2.17-1.04 6.8.16 9.03 1.58 2.96 4.5 3.72 2.06 7.1-1.84 2.56-4.15 4.53-4.32 7.96-.16 3.18 2 6.2 5.39 5.26 2.73-.76 4.35-3.56 6.42-5.26 3.57-2.93 6.5-.21 10.17 1.45 2.87 1.3 8.17 2.16 9.61 5.23 1.83 3.9-.52 5.42-3.92 4.3 1.32 4.37-.42 6.9-.9 11.42-.39 3.65-1.23 6.99-1.76 10.52-.71 4.71-.79 4.2-5.64 4.36-4.12.14-8.12.02-12.24-.16-3.62-.16-6.1.17-6.25-4.2-.08-1.93 1.14-8.48-2.66-7.7-3.35.7-2.39 6.68-3.51 8.93-1.62 3.25-4.36 2.26-7.42 3.06-3.1.82-5.6 3.1-4.8 6.65.85 3.78 4.31 3.52 7.32 4.4 4.64 1.34 3.62 8.16 6.33 11.87 1.1 1.51 2.27 3.04 4.12 1.8 3.4-2.28.2-7.84 1.1-10.63.94-2.93 4.13-2.33 7.14-2.71 4.44-.57 9.1-2.71 13.53-2.68-.85 2.55-3.23 4.04-4.09 6.73-.46 1.44-.03 4.14-.66 5.33-.69 1.28-2.85 1.67-3.74 3.45-1.17 2.33-1.54 4.84-2.9 7.12-3.24 5.41-6.03 10.94-9.47 16.3a109 109 0 0 1-11.85 15.57c-4.33 4.65-5.62 2.4-9.35-1.4-1.52-1.55-4.74-3.34-5.16-5.65-.41-2.27 1.47-4.13 2.5-5.99 1.37-2.45 3.84-6.68 3.24-9.63-1.13-5.54-6.08-.44-7.96 1.63-3.28 3.62-5.11 7.43-10.06 4.57-3.18-1.83-7.17-6.85-11.34-5-3.79 1.7-2.72 6.57-.4 9.05 1.31 1.38 3.17 2.18 4.56 3.47 2.98 2.8 1.3 3.56-.07 6.69-1.11 2.56-1.27 7.6.78 9.74 4.04 4.2 7.16-4.28 10.91-4.45 1.78-.08 9.17 4.77 9.7 6.52.92 3.06-7.05 6.72-9.17 8.15-4.92 3.35-10.3 6.76-15.83 8.97-6.54 2.62-1.67-5.62-5.25-8.36-4.65-3.57-5 6.2-5.48 8.62-1.27 6.45-8.09 6.62-13.58 8.22-3.5 1.02-7 2.1-10.54 2.99-3 .75-6.36.73-9.27 1.66-2.55.82-4.3 2.48-7.15 2.5-.93 0-1.74-.31-2.63-.33-1.8-.05-3.46.99-5.18.88-2.87-.18-1.62-1.08-2.62-3.09-.94-1.87-3.32-2.56-5.18-3.15-5.32-1.68-9.75-.2-10.52-6.97-.24-2.08.08-10.6-3.87-9.61-4.62 1.16-.56 11.3-3.42 13.84-1.4 1.23-3.5.62-5.18.98-2.76.6-3.97 2.68-6.99 2.54-2.54-.11-4.91-1.24-7.13-2.37-3.31-1.67-7.26-2.78-10.02-5.34-3.78-3.5-5.44-8.95-7.05-13.69-2.37-6.97-3.39-13.93-3.77-21.24-.13-2.55-1.21-4.35-1.66-6.69-.49-2.49.94-2.99 1.26-5.34.32-2.3.17-4.74.65-7.2.7-3.53.93-7.14 1.6-10.68 1.12-5.86 2.8-11.68 4.19-17.48.43-1.8 1.2-7.59 3.43-8.14 1.64-.41 5.43 2.03 6.96 2.75 3 1.42 5.6 3.38 8.81 4.36 1.66.51 3.76.46 4.85 2 1.72 2.44.33 7.22 1.04 10.1.88 3.54 3.77 5.04 6.1 1.5 1.24-1.9.91-4.15 1.08-6.24.24-3.01.3-3.74 3.55-3.54 3.3.2 6.53 1.45 9.92 1.6 3.05.14 6.12.06 9.17-.11 7.41-.4 14.19-1.61 21.14-4.25 4.7-1.79 10.16-5.7 15.35-5.55 7.32.19 5.34 6.97 6.34 12.04.61 3.09 5.77 12.56 7.75 4.87.98-3.8-2.28-9.35-.35-12.78 2.29-4.06 10.7-.7 14.52-1.63 3.09-.77 8.26-5.15 6.08-8.94-1.04-1.79-3.05-1.45-4.84-1.58-3.4-.26-6.77-.72-10.14-1.22-1.92-.28-4.85-.44-5.61-2.65-.65-1.86 2.4-6.7 3.06-8.5a46 46 0 0 0 2.98-17.18c0-2.9.2-5.97-.27-8.85-.17-1.05-1.75-4.5-1.01-5.5 1-1.35 3.03.37 3.85 1.38 1.62 2.02 1.06 1.86.13 3.96-1.36 3.08-4 9.55.48 11.92 4.7 2.48 6.39-5.9 10.83-4.99 2.07.43 4.11 3.16 5.78 4.43 1.96 1.49 4.07 3.07 6.36 3.98 3.77 1.5 8 .38 6.48-4.36-1.2-3.74-5-6.86-7.71-9.51-4.33-4.22-4.13-6-1.14-10.96 1.25-2.08 6.05-10.91.48-11.63-2.94-.38-6.13 4.4-7.69 6.22-2.67 3.14-4.2 4.49-8.17 1.97-3.88-2.46-5.69-4.52-10.39-4.75-5.4-.26-7.83-8.38-10.7-12.55-7.78-11.33-19.7-16.94-29.75-25.62-4.9-4.23-8.2-9.76-11.93-14.97-1.77-2.48-4.06-4.54-5.5-7.25-.92-1.7-3.38-5.8-2.74-7.8.8-2.5 5.1-4.04 6.9-5.8 1.5-1.48 2.3-3.33 4.67-2.76 2.1.5 4 3.35 5.72 4.6a38 38 0 0 0 5.47 3.3c3.39 1.65 7.48 2.54 7.68-2.51.17-4.38-3.82-9.06-6.7-12-2.1-2.15-5.27-4.02-4.85-7.43.2-1.7 1.64-4.7 2.47-6.12 2.9-4.88 11.71-1.9 16.5-1.59 5.78.38 12.15-.6 16.74 3.5 1.5 1.33 4.97 3.95 5.7 5.8.86 2.16-.54 3.13-1.32 5.22-1 2.7-1.7 8.03 1.2 9.9 4.82 3.1 7.33-6.11 12.35-4.1 4.75 1.91 8.07 7.41 13.5 8.28 7.1 1.14 3.06-7.66.6-10.25-3.19-3.36-9.37-6.83-7.34-11.8.57-1.42 1.9-4.38 3.08-5.26 2.33-1.72 6.08-.78 8.74-.75 6.72.07 13.07-.48 19.65-1.65 1.99-.36 2.44-.64 3.84.84 1.94 2.05 2.96 4.71 5.2 6.73-3.25 3.5-8.07 7.65-5.8 13.05 1.94 4.65 6.2 2.37 9.1-.12 1.35-1.16 2.76-3.63 4.55-4.1 2.34-.6 4.96 1.52 6.87 2.6 2.87 1.6 9 6.4 12.26 3.57 4.3-3.74-.79-9.37-3.76-11.68-1.8-1.4-4.18-2.4-5.7-4.12-2-2.3-.83-2.63.4-4.7 2.22-3.79 1.4-8.66 4.97-11.62 1.98-1.64 4.8-2.67 7.06-3.88 2.22-1.18 4.6-3.53 6.79-4.43m36.33 14.72-2.6-1.6c1.98-.96 3.29-.84 2.6 1.6m47.84 46c.35-1.76 1.72-4.92 3.6-3.27 1.2 1.06-.12 5.05 2.76 3.95.14 2.54-1.75 2.32 1.04 4.58-3.52-.4-8.38-.25-7.4-5.26m-136.7 214.22c.88-2.38.87-6.07 3.6-3.9.15-2.88-.54-12.02 4.7-11.65 2.13.15 2.1 2.03 2.67 3.66.98 2.85 2.64 5.44 4.04 8.09a36 36 0 0 0-15.02 3.8m1.7 32.84c2.96 2.25 4.45-.4 7.25-1.37 2.58-.89 5.27-.35 8.13-.99 3.55-.78 7.74-.66 11.2-.7.86 0 2.65.13 3.51.23 1.58.19 1.44.51 3.07.95q.93-.22 1.9-.32a2 2 0 0 1 1.86.98c1.47.49 2 .16 3.4.5 3.34.82 5.84 2.83 8.02 5.5 4.44 5.43 4.57 13.6 4.47 20.32-.03 1.92-.17 3.82.04 5.73.2 1.75 1.43 4.4.93 6.14-.77 2.64-3.14 2.05-5.9 2.16-1.64.07-3.26 1.12-4.55 1.22-1.26.09-1.76-.38-3.03-.66-3.3-.74-7.2.32-10.47 1.22-3.35.92-6.28 1.83-9.67 2.48-2.21.43-4.2.67-6.43.95-1.83.23-2.61 1.2-4.2 1.59-1.55.38-3.04-.2-4.6.1-2.1.42-3.58 1.97-5.5 2.74-2.66 1.06-6.9-.53-8.08 2.76-.46-3.17-3.5-2.31-5.76-2.59-3.73-.46-7.4-2.13-10.98-3.2-2.94-.87-13.1-8.92-15.04-5.66 0-.33.35-2.2.05-2.41-1.09-.77-1.08-.35-2.24-.82a10 10 0 0 1-3.82-2.62c-2.58-2.5-6.05-3.8-8.77-6.05-6.83-5.67-9.17-17.34-10.83-25.47-2.18 3.86-1.38-1.1-1-2.75.89-3.91-.26-5.84-.52-9.61-.24-3.48 1.35-4.17 4.48-4.53a85 85 0 0 0 11.37-2.04c3.61-.92 7.15-1.96 10.41-3.79 2.98-1.67 6.12-2.33 9.17-3.8 3.36-1.62 6.66-3.32 10.06-4.9 1.53-.7 8.26-5.8 9.43-5.48 2.4.63.14 4.84-.6 5.94-1.87 2.84-4.96 4.15-7.75 5.94-2.51 1.6-10.13 9.22-2.4 8.46 5.13-.51 8.6-5.88 11.88.24 1.16 2.16 2.87 3.9 1.53 6.13-1.85 3.12-7.22 4.6-10.03 6.7-2.4 1.8-7.3 10.22-2.35 11.13 1.41.26 3.6-.08 4.66-1.18.71-.75.66-2.28 1.38-2.79 1.02-.72 3 .17 4.17-.22 1.66-.57 2.05-1.47 2.66-3.07 1.77.81 1.8 1.9 3.82.85.67-.34.92-1.61 1.7-1.95 1.04-.46 1.35 1.04 1.93.82 1.55-.6 1.54-1.27 2.03-2.8m-106.42-24.8c-2.97.23-6.22.47-8.76-1.42 3.09.18 5.8.88 8.9.24 1.22-.25 3.19-1.41 4.45-1 4.47 1.42-3.4 2.1-4.59 2.19m-8.26-261.54c-.04-1.05-.93-15.12 3.88-9.6 1.31 1.52-.1 3.54-.3 5.22-.3 2.81.68 5.64 2.17 8.01 1.38 2.21 3.97 4.15 3.58 7.04-.34 2.53-2.9 4.7-4.15 6.8-3.1-4.89-4.93-11.6-5.18-17.47M401 218.9a182 182 0 0 0-32.96 6.45c-10.54 3.14-20.37 8.05-30.27 12.76-2.05-8.74-4.18-17.46-6.2-26.21q-1.45-6.33-2.8-12.66c-.65-3-3-8.6-2.02-11.56.52-1.57 1.2-1.58 2.33-2.54.68-.6 1.87-2.04 2.58-2.35 1.73-.75 6.16-1.4 7.93-1.3 1.61.1 2.45.74 4.1.28 1.42-.4 2.6-1.48 3.93-2.08 3.37-1.52 7.57-2.02 11.18-2.82 3.46-.78 7.04-.95 10.52-1.71 3.05-.67 4.5-2.91 7.09-2.83 6.76.2 14.23-.58 20.94-2.2 7.52-1.8 15.7-1.46 23.42-1.65 3.08-.08 5.24-.77 5.25 2.65.02 4.18-1.65 8.87-2.5 12.95-1.89 9.04-3.49 17.83-4.2 27.02-.36 4.6-2.24 4.27-5.98 5.68-4.15 1.57-7.92 1.66-12.34 2.12m-58.55 92.79c2.74.4 2.42-7.1 2.63-8.63 6.54 12.34 13.9 24.22 19.67 36.96 1.35 2.98 2.57 6.03 4 8.97.97 2.02 3.15 4.72 3.1 7.07-.06 2.45-2.03 3.36-4.12 4.27-2.25.98-3.13 1.47-4.71.33-1.92-1.37-3.53-5.6-4.71-7.63-1.81-3.12-3.55-6.27-5.32-9.4-3.21-5.68-7-11.12-9.65-17.08-2.47-5.59-6.21-10.4-8.88-15.88-2.64-5.43-6.25-10.58-9.29-15.9 3.05-1.27 6.85-4.44 10.31-4.26 3.58.18 3.5 3.63 3.65 6.51.16 3.05-.86 14.05 3.32 14.67m8.78 55.75c-1.63 1.93-5.31 3.07-7.57 4.14-3.12 1.5-6.32 2.81-9.43 4.33a851 851 0 0 1-30.77 14.12 340 340 0 0 0-15.93 7.51c-2.75 1.38-8.8 6.23-11.97 6.35-3.62.14-3.7-7.18-4.5-9.92-.67-2.3-1.92-4.09-2.76-6.26-.34-.9-.07-1.57-.6-2.45-.58-1-2.24-1.81-3.1-2.68-3.62-3.67-6.62-8.36-9.68-12.5-2.8-3.8-7.58-8.55-8.93-13.2-2.64-9.15 12.72-14.21 18.6-17.88 10.28-6.44 20.61-13.05 30.42-20.2 4.47-3.25 8.84-6.63 13.33-9.86 2.1-1.5 7.9-7.36 10.59-5.28 1 .78 1.02 2.93 1.44 4.06.9 2.46 2.3 4.61 3.7 6.82 1.25 1.96 3.02 3.98 3.8 6.16.93 2.6.88 4.08 2.58 6.41 3.1 4.25 4.56 9.15 7.43 13.48 2.77 4.17 5.44 7.25 7.25 11.92 1.04 2.67 2.68 5.04 4.13 7.5.68 1.16 1.4 2.3 2 3.5 1.1 2.15 1.5 2.12-.03 3.93m-87.73 35.72c-1.97 1.4-4.85-.96-6.76-1-.82 0-1.65.64-2.2.62-1.66-.05-3.02-1.17-4.55-1.69-7.07-2.4-15.5-2.5-21.53-7.37-12-9.7-6.28-29.17-4.1-41.77.45-2.57 1.25-6.14-.83-8.24-2.27-2.3-5.7-.93-7.78.94-2.14 1.91-3.6 4.6-5.37 6.83a161 161 0 0 1-9.04 10.23c-11.1 11.74-22.83 25.18-36.55 33.8-5.7 3.58-10.87 8.44-17.12 11.17-7.53 3.29.2-9.4 1.55-11.46 8.85-13.49 21.74-24.17 32.56-36.01 2.05-2.24 4.95-5.25 4.98-8.47.06-4.83-4.21-4.4-7.59-3.06-3.16 1.26-4.74 4.38-7.28 6.52-3.16 2.66-6.86 4.81-10.38 6.96-7.6 4.63-15.65 8.5-23.69 12.3q-5.65 2.64-11.31 5.23c-1.04.48-7.24 4.4-6.94 1.04.04-.45 4-5.25 4.48-5.43 2.43-.9 3.64 1.8 5.8-1.73 1.55-2.5 1.76-3.8 3.93-5.7.37-.31.63-1.13.93-1.66-.04.2 1.61-1.4 1.3-1.13.43-.38 1.06-1.08 1.41-1.54 1.7-2.22 4.96-2.26 6.44-4.8.56-.96.24-2.2.92-3.16.95-1.34 3.05-1.91 4.16-3.1l2.34-2.46c.41-.43 1.13-.73 1.61-1.22 1.2-1.22 1.11-2.3 2.8-3.32 1.51-.92 2.2-.06 2.73-2.34 1.85 1.18 1.61-.54 2.36-1.78.97-1.61 2.2-2.33 3.55-3.5 2.95-2.56 5.71-6.38 8.22-9.6 6.24-8.03 11.28-17.42 13.14-27.49.44-2.4.69-4.84.87-7.28.1-1.28-.33-4.41.47-5.67 1.23-1.95 3.57-1.18 5.36-2.03.6-.3 1.2-1.15 1.77-1.34.8-.27 1.77 0 2.6-.27.31-.1.39-1.04.92-1.16 1.04-.24 2.07.13 3.1.15 2.25.03 4.47-.37 6.63-1.08 1.96-.66 3.6-2.15 5.56-2.69-.2.06 3.22.33 3.04.14l.5-2.54c1.3.91 5.73 2.11 7.1 1.9 2.22-.33 1.75-2.32 3.62.3l3.19-2.78c.8 3.37 6.34 1.73 8.85 1.92 3.54.26 6.32-.4 9.55.83 3.92 1.5 7.35 3.08 11.58 3.49 2.95.28 4.17 1.67 7.06 2.53 3.89 1.15 4.2 2.41 2.98 6.38-.98 3.22-1.84 5.7-.4 9 2.56 5.86 9.5 8.27 13.97 12.32-10.48 7.35-20.83 14.59-30.96 22.42-4.24 3.28-8.75 6.57-11.17 11.51-2.23 4.56-3.5 10.03-4.83 14.91-3.08 11.19 5.59 18.72 14.49 23.64 1.84 1.02 14.53 16.94 11.96 18.79m-17.28 13.52c-.63-2.15-.55-2.73 1.53-3.5.78-.3 3.8-.67 4.28.4 1.1 2.45-4.7 2.42-5.81 3.1m88.29-155.9q1.12 7.16 2.14 14.33c.36 2.64 1.2 4.98-.78 6.98-1.11 1.13-3.83 1.55-5.26 2.15a81 81 0 0 0-6.05 2.9c-3.53 1.86-7.22 2.97-10.7 4.64-1.52.73-2.42 2.15-3.74 3.14-1.8 1.35-3.98 2-5.83 3.28-3.31 2.3-6.35 5.01-9.66 7.32-3.75 2.62-4.53 1.78-6.64-2.09-1.9-3.47-4.16-5.05-6.89-7.77-1.05-1.06-4.85-7.09-1.63-7.6.83-.14 3.68 1.1 4.32 1.5.99.6 2.55 4.02 3.35 4.08 1.44.1 3.28-3.99 4.17-5.07a201 201 0 0 1 19.13-20.23 87 87 0 0 1 11.23-8.7c2.84-1.84 5.32-4.42 8.12-6.16q.89-.78 2.02-1.1 2.18-1 1.64 1.71c.84 1.78.75 4.73 1.06 6.69m-128.38-6.26c1.42-1.45 3.23-2.61 4.47-4.23.7-.92 1.16-2.55 1.97-3.14 1.4-1.03 3.4-.56 5.02-1.94 1.57-1.33 2.95-2.93 4.49-4.32 3.32-3 6.75-5.76 10.01-8.81 1.86-1.74 3.8-3.99 5.45-5.13.43-.3.92-.76 1.39-1 .99-.5 1.48.02 2.93-.45.96-.3 1.64-1.52 2.41-2.1 1.83-1.36 4.21-1.9 5.97-3.21 1.76-1.32 2.6-3.35 5.02-4.45 2.93-1.32 5.12-.28 7.24-2.8.86-1.04 1.1-2.34 2.45-3 1.64-.78 3.07.05 4.63-.84 1.05-.6 1.77-1.86 2.85-2.52 1.94-1.18 4.1-1.3 5.9-2.75 1.54-1.23.69-1.1 2.5-1.62.8-.23 1.69-.33 2.54-.62 2.73-.93 7.19-2.07 8.8-4.66.82 1.2 1.1 1.44 2.43 1.07q1.05-.86 1.93-1.88.64.81 1.38.1c2.88-1 5.52-2.7 8.35-3.64l1.21.65q.84.05.68-.82c1.12-.2 2.4-.7 3.43-1.14 1.97-.86 4.15-2.9 6.47-2.17 3.88 1.22 4.07 9.13 4.74 12.27l4.96 23.18c.68 3.15 1.27 6.32 2.16 9.4.58 2.03 2.02 5 1.5 7.15-.64 2.64-3.2 3.5-5.36 4.71a116 116 0 0 0-8.62 5.47c-11.9 8.21-20.77 19.5-29.2 31.07-1.56-2.27-5.75-5.46-8.36-6.48-1.82-.72-3.47-.14-5.29-1.01-1.3-.63-2.37-1.85-3.6-2.63-7.49-4.8-16.53-8.77-25.2-10.67-17.82-3.9-35.25 2.14-52.52 5.01 3.5-4.81 8.74-7.85 12.87-12.05m119.22-130.75c3.05-9.93 8.18-19.55 15.49-27 3.68-3.76 8-7.04 12.86-9.13 4.22-1.82 9.24-3.56 9.18 2.28-.15 12.68-3.08 25.21-3.43 37.91-.35 12.44 1.73 22.43 9.26 32.46q-7.16 1.64-14.3 3.41c-3.6.9-7.34 1.9-10.76 2.51-3.38.61-6.48 1-9.82 2.15-2.25.77-5.77 3.12-8.2 2.6-4.06-.84-3.1-15.36-3.3-18.85-.59-9.85.11-18.85 3.02-28.34m73.97 19.13c5.53-6.7 11.27-14.54 20.57-15.79 9-1.2 12.31 9.59 11.74 16.86-.2 2.46-.56 8.85-2.35 10.85-1.98 2.2-5.49.54-8 .2-10.85-1.47-21.97.98-32.85.98q5.46-6.54 10.89-13.1m44.5 26.77c3.78.54 6.8 1.11 4.97 5.4-3.65 8.61-6.45 16.82-3.25 26.2 2.44 7.16 10.17 15.86 17.9 17.3 2.7.5 6.77-.4 8.43 2.34 1.48 2.45-.12 9.8-.3 12.51-.64 10.13-3.23 20.18-9.79 28.14-5.83 7.09-12.95 12.63-21.43 5.94-7.15-5.63-11.38-15.71-13.5-24.32-1.12-4.6-1.26-9.19-1.48-13.89-.19-4.16-.98-6.8 3.72-7.65 1.26-.23 4.4-.16 4.41-2.08 0-2.59-3.4-1.62-4.71-1.75-5.03-.5-2.68-6.36-2.2-10.14.8-6.45 2.09-12.82 3.27-19.2 1.02-5.44 1.07-12.57 3.27-17.65 1.28-2.97 8.18-1.51 10.7-1.15m9.27 19.09c.58-3.5.88-7.88 4.36-9.82 3.82-2.13 5.73 1.34 7.62 4.17 5 7.52 10.53 14.55 11.35 23.88.1 1.11.58 3.35-.5 4.12-.48.34-1.62-.57-2.36-.51-3.96.28-6.82 1.34-10.7-.9-7.6-4.37-11.15-12.49-9.77-20.94m29.88 20.99c-.81-8.16-4.58-15.4-8.8-22.28-2.06-3.4-6.1-7.11-7.53-10.7-.76-1.92.6-4.3 3.38-3.48 1.4.41 4.07 4.1 5 5.37a86 86 0 0 1 6.25 10.52c2.02 3.82 7.75 17.86 1.7 20.57m-25.01-81.25c.44-7.67.48-16.49 5.45-22.86 3.86-4.94 10.91-7.09 16.63-9 7.71-2.57 16.97-2.97 25.04-2.13 7.1.73 12.45 5.56 16.83 10.87 4.45 5.4 7.9 12.36 10.96 18.65.77 1.57 7.27 11.66 2.87 11.43-1.74-.1-3.26-3.5-4.6-4.5-1.04-.8-2.28-.7-3.22-1.32-1-.68-.78-1.3-1.56-2.14-5.37-5.73-10.32-2.43-16.1.59-.28-2 .2-5.72-1.48-7.18-2.19-1.92-4.47 1.12-6.04 2.6-1.43 1.36-3.2 3.83-5 4.56-2.33.95-1.54-.06-3.57-.86-4.09-1.6-7.23 3.15-9.3 5.92-.77 1.03-2.03 3.64-3.41 3.92-1.34.27-1.51-.68-2.66-1.04-3.26-.99-4.16 1.33-5.2 4.22-1.17 3.24-2.16 6.36-3.89 9.4-3.05 5.35-4.37 7.11-1.95 13.03-3.53.52-4.27.94-6.02-2.19-1.8-3.23-2.27-5.9-2.16-9.62.24-7.76-2.08-14.46-1.62-22.35m81.95 36.73a52 52 0 0 1 6 23.57c-.02 3.77-.24 8.4-2 11.83-1.7 3.29-5.23 4.93-8.49 6.33-7.85 3.37-16.7 3.33-24.96 1.83-4.28-.78-8.45-.28-12.12-2.85-2.76-1.94-6.09-3.82-6.9-7.38-.34-1.49.19-2.74.08-4.2q.2-1.04-.15-2.03-.73-.42-1.46-.8c-.39-1.12.35-2.35.16-3.51-.22-1.4-1.39-2.54-1.93-3.8-1.5-3.5-.43-5.45 2.37-7.83l2.02-1.56q.91-1.45 2.02-.01c1.33.01 1.29.43 2.7.02 3.06-.9 5.63-4.16 8.64-5.3 1.17-.45 2.9-.08 3.86-.9.85-.73.3-2.27 1.05-3 2.37-2.3 6.11-.12 8.31-3.47 1.8-2.73 1.42-6.61 1.6-9.72 5.51 1.06 7.9 6.34 12.42 9 .9-3.48 1.03-3.38 4.49-4.33-1.57 2.9.96 5.72 2.29 8.1m4.21-36.85c1.02 1.3 1.8 4.55 0 4.87zm4.7 11.81c8.42.02 13.8 10.65 16.25 17.24 2.67 7.17 5.49 16.72.5 23.7-1.9 2.68-4.25 2.92-7.33 2.58-3.7-.42-5.6-.96-4.15-4.92 2.72-7.42.67-16.85-4.14-23.06 6.62-1.28 2.42-7.35-.9-9.63-3.88-2.65-7.02-5.92-.22-5.91M356.76 524.71c-1.97 5.25-3.99 10.49-5.65 15.9-1.57 5.12-.66 10.9-2.62 15.83-1.2-.6-1.55-1.66-2.6-2.3-.64-.4-1.76-.55-2.32-1a26 26 0 0 1-3.88-4.62c-2.16-3.76-.72-9.86.43-13.72a36 36 0 0 1 7.16-13.12c2.3-2.64 3.57-1.8 6.65-.5 1.82.76 3.7 1.26 2.83 3.53m-14.99 41.42c-1.58 3.2-4.5 5.84-6.24 9.06-1.82 3.39-3.2 7.2-5.52 10.3-2.37 3.15-4.49 2.62-7.75 3.99-1.16.48-1.66 1.39-2.6 2.1-1.76 1.32-3.7 2.13-5.55 3.3-1.32-3.23-5.35-19.47-10.47-19.12-4.46.3-2.18 8.8-1.6 11.31a55 55 0 0 0 1.78 6.32c.74 2.07 3.07 5.16 2.2 7.42-1.09 2.88-3.8 2.7-5.17.6-1.14-1.76-1.71-4.15-2.55-6.06-.74-1.68-4.11-10.88-7.03-9.45-2.81 1.37 1.56 10.29 2.29 12.04 1.77 4.23 5.15 8.3.68 11.68-6.8 5.14-15.16 9.02-22.77 12.72-4.44 2.17-8.44 5.01-13.1 6.77-4.33 1.63-9.33 1.91-13.52 3.79-1.03.46-.34 1.04-1.84 1.3-1.27.23-3.47-.38-4.83-.36-2.24.02-4.48.19-6.72-.1-1.26-.15-4.13-1.53-3.68.75-1.78-.5-2.47-2.3-3.77-3.42-1.16-1-2.64-1.55-3.93-2.33-2.68-1.63-4.68-3.49-5.48-6.59-1.88-7.28 2.1-14.86 7.01-19.94 2.83-2.91 6.14-5.34 8.72-8.47.91-1.1 1.56-2.38 2.7-3.28 1.42-1.1 3.36-1.23 4.72-2.34 1.02-.83 1.32-2.14 2.39-2.9 1.57-1.12 3.42-.65 4.9-2.12.86-.84 3.77-4.8 3.57-5.9l2.4.81c.48-2.44 4.68-5.44 6.75-6.6 1.05-.6 3.1-.57 3.87-1.2 1.04-.85.95-2.62 1.78-3.68 2.36-3.04 7.3-4.4 10.42-6.52 3.98-2.7 7.85-5.75 11.44-8.94a106 106 0 0 0 18.9-22.11 67 67 0 0 0 5.55-10.27c.93-2.23 1.85-6.18 4.13-7.47 2.36-1.33 7.77.47 10.4.66 3.88.28 9.92.1 13.4 2.01 3.7 2.04.69 3.72-1.22 6.15-2.8 3.55-4.48 7.9-5.88 12.16-1.07 3.28-1.27 6.46-1.98 9.76-.74 3.5-.73 8.21.99 11.42 1.7 3.18 13.99 9.16 12.21 12.75M195.3 630.55c-8.34-11.36-1.44-27.99 6.72-37.16 9.85-11.08 23.86-17.3 35.37-26.31 13.31-10.42 26.98-20.1 38.78-32.3a136 136 0 0 0 15.9-20.07c4-6.1 6.91-14.24 15-15.12-4.77 5.95-5.05 14.52-8.74 21.15-3.9 7.02-9.67 12.86-15.54 18.25-12.39 11.4-25.77 21.83-39.16 32.01-6.83 5.2-13.47 10.63-20.28 15.85-6.1 4.68-12.5 8.68-16.02 15.8-6.06 12.3-6.42 30.52 7 38.1-6.92-1.39-14.7-4.3-19.03-10.2m727.34-512.21c-2.47-4.94-7.1-6.7-11.74-8.63-4.54-1.9-8.7-4.22-13.74-4.83-2.24-.27-8.57.4-8.86-2.85-.25-2.7 6.36-5.42 7.88-7.49 2.26-3.05 3.8-8.02 2.92-11.88-.83-3.66-4.4-4.82-7.72-5.48-10.34-2.06-21.34-.55-31.7.3 1.26-1.77 3.05-3.23 4.07-5.36l1.64 3.42a54 54 0 0 1 3.12-5.7l2.36 2.65c-1.3-4.6 3.1-4.57 2.63-8.44-.18-1.51-1.2-2.17-1.45-3.38-.5-2.4 1.37-3.92-.75-6.15-2.35-2.49-6.2-1.5-8.95-1.27-.34.03-.84.71-1.28.77-.62.08-.98-.77-1.74-.73-2.04.12-3.84 1.71-5.88 2.2-9.41 2.23-18.83 6.22-27.86 9.94-9.2 3.8-18.23 8.2-26.25 14.15-8.59 6.37-14.79 14.55-21.64 22.61-3.23 3.8-6.56 7.43-9.01 11.8-1.27 2.25-2.42 9.34-4.7 10.37-2.48 1.12-8.7-2.05-11.24-2.63a66 66 0 0 0-18.02-1.67c-4.86.22-10 .09-14.82.68-2.8.35-9.78 3.45-10.22 6.93-.2 1.54 1.57 2.83 1.96 4.27.6 2.2-.39 4.51.3 6.7 1.41 4.48 7.95 6.12 11.8 7.53 10.76 3.93 21.67 6.98 32.54 10.5 4.72 1.53 8.76 3.97 13.04 6.41 3.55 2.03 6.79 4.06 3.2 7.87-3.4 3.6-2.97 5.06-1.96 10.03 1.07 5.24 1.44 10.54 2.83 15.74 1.38 5.17 3.97 10.1 3.46 15.58-.5 5.45-2.76 11.05-4.87 16.05-2.13 5.05-4.48 10.03-6.8 15-2.14 4.6-4.46 9.26-9.41 11.22-9.47 3.74-21.56 3.15-31.42 1.79-11.2-1.55-22.75-4.16-33.34-8.16-10.18-3.84-21.37-9.73-29.8-16.69-4.49-3.71-9.36-6.47-14.13-9.8-4.84-3.36-8.5-7.91-12.75-11.95-8.3-7.9-18.52-13.36-29.05-17.7-11.82-4.9-24.04-4.39-36.57-4.92 1.97-3.87 4.51-7.58 5.44-11.9.97-4.49.27-9.37-.35-13.86-1.19-8.75-3.45-16.44-8.97-23.5-2.52-3.23-5.47-5.74-9.67-6.21-2.55-.29-7.25 1.67-9.09-.49-.8-.95-.62-2.95-1.13-4.12-.45-1.04-1.36-2.09-1.85-3.22-2.1-4.83-4.73-9.1-7.35-13.68-1.04-1.82-1.85-4.5-3.27-6.04-.78-.83-1.77-1.21-2.2-1.82-.81-1.14-1.19-3.23-1.86-4.52a28 28 0 0 0-4.33-6.07 28 28 0 0 0-9.92-6.93c-2.06-.8-3.58-1-5.73-.88-.64.04-1.34.4-1.97.36-1.51-.12-1.28-.66-2.49-.91-8.11-1.7-18.99.68-26.6 3.59-8 3.06-14.52 7.1-19.39 14.36-11.96 17.84-9.17 40.87-4.1 60.5-3.07-.8-6.12-1.75-9.22-2.43-1.9-.42-4.5-.34-6.19-1.35-3.77-2.22-.7-7.94-.68-11.64.06-9.39-4.37-24.07-14.03-28.04-10.07-4.13-22.32 7.47-28.55 14.05-3.99 4.22-7.62 8.76-11.44 13.14-2.67 3.05-6.2 7.92-10.88 7.12-10.2-1.74-7.1-21.16-6.64-27.72.72-10.38 2.25-20.93 2.25-31.33 0-6.33-1.09-14.86-8.85-15.6-10.7-1.02-20.82 8.7-27.05 16.18-16.44 19.73-20.07 45.8-15.67 70.56.64 3.63 2.7 8.1-1.23 10.35-5.16 2.96-11.75 4.76-17.3 6.93-12.4 4.86-23.87 11.34-35.55 17.67-11.55 6.27-22.92 12.5-33.35 20.58-10.4 8.06-20.68 16.59-30.15 25.72a221 221 0 0 0-13.56 14.26c-4.05 4.66-7.32 9.96-11.72 14.31-2.99 2.97-8.49 6.95-9.15 11.47-.53 3.66 5.63 6.19 8.41 7.88 1.91 1.16 3.23 1.12 3.37 3.18.17 2.58-2.54 6.7-3.51 9.16a61 61 0 0 1-9.9 16.65c-9.37 11.54-20.69 21.33-31.43 31.58-9.98 9.52-19.77 18.9-27.08 30.72-1.8 2.9-6.26 8.84-2.02 11.55 1.1.7 4.47 1.26 5.59.5 1.38-.93.68-2.34 2.31-3.27-.4 3.14 13.88-3 15-3.58 3-1.54 5.71-3.34 8.79-4.72 1.8-.8 2.01-1.94 3.4-2.84.75-.48.76.17 1.76-.13.9-.28 3-.38 3.68-1.24.01-.03.75-2.12.12-1.69 2.44-1.7 3.88.87 2.42 3.28-4.32 7.11-9.79 12.35-11.48 20.9-.62 3.1-1.66 8.87.23 11.7.07.1.7-.2.79-.08.07.1.76 1.07 1.05 1.34 1.67 1.6 1.57 2.32 4.36 2.25 1.24-.03 3.72-.19 4.85-.75.85-.42 1.27-1.46 1.93-1.83s.58-.57 1.2-.79c.14-.04.38 1.05.62 1 1.34-.25 1.91-1.04 3.04-1.68 3.26-1.85 6.46-3.88 9.57-5.74s5.46-4.48 8.57-6.65c3.3-2.31 6.01-4.08 8.56-7.28 1.76-2.22 3.86-3.03 5.04-4.12 1.4-1.3 3.82-6.3 6.08-6.9 1.03-.27 1.86.64 2.42.27.64-.42-.06-1.23.26-1.7.6-.89.67-1.03 1.68-1.84 1.3-1.04 2.9-1.32 3.98-2.67 1.2-1.5 1.37-3.18 2.86-4.6 3.58-3.38 6.76-6.94 10.55-10.22-1.46 8.16-2.91 16.27-1.78 24.57 1.1 8.05 4.52 11.65 11.22 15.74 1.48.9 3.03 2.2 4.61 2.84.96.39 2.41.16 3.13.44 2.43.97 1.6 2.94 1.94 5.16.52 3.45 3.68 6.1 5.73 8.79 1.72 2.26 4.82 7.4 7.7 8.17 2.59.7 5.04-2.33 7.2-3.63 3.26-1.95 6.82-3.34 10.25-4.94 6.72-3.11 13.21-6.82 19.85-10.12 3.04-1.5 6.1-2.11 9.31-3.08 3.86-1.17 7.15-3.4 10.85-4.92 6.65-2.74 13.02-6 19.63-8.88 13.69-5.95 28.61-10.03 40.79-18.96 5.5-4.03 12.6-4.46 18.03-8.39 5.65-4.09 2.18-10.34-.24-15.36-6.62-13.71-10.57-27.95-19.68-40.44-4.73-6.49-9.1-13.2-13.24-20.1-3.65-6.1-3.57-13.02-4.49-19.91-.61-4.61-1.19-9.24-1.94-13.83-.47-2.92-2-6.6-.15-9.24 2-2.84 6.73-4.05 9.73-5.55 3.72-1.86 7.32-3.86 11.18-5.44 8.83-3.6 18.13-6.1 27.38-8.3 2.76-.65 14.58-5.34 16.83-2.6-2.76 1.85-3.57 5.2-4.81 8.08-1.85 4.28-3.75 8.36-5.1 12.85a531 531 0 0 0-7.41 28.13c-2.25 9.35-4.94 18.77-5.63 28.4-.35 4.92-.1 9.84-.12 14.77 0 5.25-1.1 10.4-.9 15.67.13 3.5.42 7.7 2.47 10.7 1.9 2.76 5.13 3.07 7.95 4.55 3.72 1.95 5.17 2.79 5.2 7.04.05 4.95-.27 9.81.19 14.76 1.61 17.24 7.4 37.7 18.96 51 .77.89 23.2 29.17 25.68 25.03 1.7 2.03 4.26 2.77 6.37 4.53 3.3 2.78 6.55 5 9.28 8.43 4.98 6.26 9.2 13.58 10.45 21.58 1.07 6.88.43 15.1-3.45 21.07-3.9 5.98-12.21 9.9-18.5 12.85-8.25 3.88-16.63 4.31-25.6 3.34-4.42-.48-8.81-1.23-13.2-1.93-1.83-.3-3.96-.3-5.7-.99-1.85-.73-2.48-1.55-4.33-1.64-1.38-.07-2.14.24-3.6-.07-1.81-.38-3.77-1.06-5.58-1.53a26 26 0 0 1-5.5-2.2c-1.71-.88-3.64-1.04-5.3-1.88-2.83-1.43-3.7-3.83-7.55-2.5-4.06 1.4-3.2 4.91-5.8 7.32-2.3 2.14-5.15.16-7.44-1.11a88 88 0 0 0-10.45-4.85 104 104 0 0 0-11.87-3.91c-4.42-1.15-9.26-1.38-13.51-3.06-3.74-1.47-5.34-4.32-8.05-6.99-2.85-2.8-6.7-3.87-10.65-3.62-7.19.46-12.1 8.23-15.89 13.62a203 203 0 0 1-36.5 39.75c-6.77 5.65-14.4 10.46-20.95 16.33-2.76 2.48-4.77 4.8-8.04 6.64-4.3 2.42-8.2 5.46-12.3 8.2-16.07 10.67-27.85 26.23-23.41 46.54 2 9.14 6 15.56 13.46 21.06 3.39 2.5 6.49 4.58 10.8 4.43 4.08-.13 7.68-.27 5.28-5.12 3.04.94 5.58 3.26 8.9 4.45a44 44 0 0 0 12.87 2.31c6.5.13 14.16-3.3 19.85-4.75 1.6-.4 4.66-1.07 6.48-2.57 1.44-1.19 1.13-2.6 3.31-3.16 2.86-.74 3.96.12 6.7-1.61 3.97-2.52 8.28-4.01 12.4-6.33 5.57-3.13 10.9-6.65 16.41-9.87.74 2.02 5.05 14.04 7.71 8.25 2.32-5.05-5.2-9.37-.63-14.48 4.37-4.87 5.28.25 9.51 2.51 5.88 3.14 5-2.72 3.29-6.2-.68-1.38-2.12-3.48-1.7-5.1.82-3.13 3.35-1.3 5.34-.97 3.13.5 5.67-.36 8.02-2.46 1.96-1.76 5.2-3.27 6.4-5.58.58-1.16.69-2.75 1.18-3.98.65-1.62 1.12-1.22 1.35-3.23q-.33-1.57-.27-3.16l1.54-.31c.02-.07.06-2.1-.15-1.8.48-.7 1.51-.99 2.1-1.96.55-.89.04-2.6.26-3.65.44-2.12 1.65-3.84 2.64-5.74 2.1 8.86 1.49 18.1 3.49 26.95 1.64 7.27 5.38 13.79 9.74 19.75 2.02 2.77 4.7 4.73 6.82 7.35 1.79 2.23 2.68 4.18 5.33 5.5 1.76.87 3.73 1.32 5.55 2.07 1.16.49 3.8 2.7 4.88 2.67-.95.03 1.78.12 1.15 0 .05.02-.32-1.18 0-1.16 3.96 3.74 8.09 3.75 12.66 6.08 2.1 1.06 2.88 1 5.12 1.4 2.9.5 5.33 2.16 8.1 2.33 4.27.27 9.07.85 13.52.69 1.21-.05 3.49-.83 4.44.23.62.7-.57 5.76-.64 6.91-.78 12.14.84 24.87 5.96 35.98 4.24 9.2 8.77 20.1 16.27 27.13 8.33 7.79 19.98 13.28 31.11 15.38 12.33 2.33 24.54.59 36.9-.14 12.54-.73 24.15-2.51 36.24-6.15 11.25-3.38 21.9-7.78 32.67-12.43 7.32-3.16 16.6-7.71 12.76-17.3-.93-2.33-4.52-8.78-7.7-5.6-2.83 2.82 1.88 8.15 4.02 9.94-16.07 11.2-35.56 14.9-54.35 18.87-10.33 2.18-20.5 2.1-31 2.12-8.9.03-17.79.28-26.63-.96-8-1.12-17.3-3.23-23.26-9.08-6.22-6.12-12.11-13.42-16.36-21.05-4.66-8.38-5.8-17.43-6.17-26.88-.2-4.97-.42-10 .1-14.97.38-3.6 2.21-4.03 3.13-6.87 2.1 2.95 3.49 1.86 6.08.13 1.67 4.67.92 9.53.64 14.34-.28 4.7.34 9.45.92 14.1.97 7.92 4.76 16.18 9.58 22.56 2.17 2.88 5.43 4.1 8.38 6.09 3.76 2.54 7.67 4.9 11.6 7.18 7.38 4.29 15.45 7.95 23.79 8.6 2.92.23 5.04 1.75 8.52 1.54 2.06-.13 4.14-.84 6.2-.78s3.84.72 5.96.56c8.82-.64 17.9-3.52 26.63-5.11 9.45-1.72 18.96-3.57 27.98-6.96 3.91-1.47 7.14-3.36 9.32-7.06 1.56-2.63 1.15-7.36 4.05-8.94-1.9-2.45-1.2-2.89.45-5.08.77-1.02 3.25-3.73.24-3.68.91-3.96-.61-7.78-1.26-11.65-.28-1.67-.2-4.2-1.24-5.63-.6-.84-1.6-.86-2.15-1.48q-.83 0-1.3-.7-.06-.97.93-1.2c-.15-1.3.81-.84-.15-2.88-1.32-2.79-3.83-5.22-6.2-7.11-2.02-1.62-3.5-4.5-5.83-5.35-3.04-1.13-6.22-2.35-9.4-3.39-7.23-2.36-14.4-3.26-21.97-1.95a76 76 0 0 0-10.25 2.4c-1.96.63-4.96 2.33-6.7.5-.6-.63-1.85-5.96-1.77-6.53.31-2.31 5.03-3.25 6.76-4.05 2.63-1.24 7.5-2.55 9.17-5 .7-1.03-.09-5.38.03-5.46 1.1-.75 5.73 9.83 7 10.56 1.82 1.04 6.95-.34 8.84-.55 5.62-.62 11.35-.97 16.86-2.31 10.57-2.58 20.95-6.56 31.24-10.08a274 274 0 0 0 56.06-26.48c8.22-5.12 16.38-11.66 22.63-19.1 2.82-3.35 4.82-7.33 7.7-10.61 3.32-3.8 2.27-7.22 3.76-11.97 3.02-9.61 6.68-18.35 8.32-28.42a154 154 0 0 0 1.92-31.48c-.93-20.76-1.94-40.44-11.06-59.52-8.36-17.48-19.2-34.56-32.07-49.03-3-3.36-6.16-6.57-9.84-9.18-3.96-2.82-8.31-5.03-11.9-8.36-2.94-2.73-5.4-5.95-8.47-8.54-3.78-3.18-8.27-4.59-12.7-6.62-4.24-1.94-8.1-4.48-12.44-6.25a71 71 0 0 0-8.06-2.82c-2.03-.56-4.73-.6-6.6-1.65-2.93-1.67-5.94-6.53-7.86-9.28-2.8-4-4.32-8.67-5.66-13.33-1.62-5.67-3.13-11.37-4.72-17.05-.54-1.94-2.56-8.69 1.48-7.05 1.18.48 2.29 2.6 3.2 3.52a27 27 0 0 0 6 4.45c3.45 1.9 7.05 4.17 10.36 5.48 2.92 1.15 5.92 3.4 8.64 5.03.42.25.54 1.1 1.07 1.33 1.25.56 2.09-.98 3.27-.6 1.62.51 1.89 2.04 2.79 3.25 1.3 1.76 1.97 1.9 3.96 2.8 2.21 1.01 3.84 3 6 3.99 2.61 1.2 8.38.27 8.77 4.4 4.07-2.67 9.18 2.5 11.72 5.18 2.56-3.93 7.1.67 10.96-.63-2.14 2.97-1.75 2.68 1.63 3.05 2.85.3 4.56 2.2 7.38 3.3 1.95.77 4.11 2.05 6.14 2.59 1.92.5 3.37-.63 5.05-.35 1.15.2 2.24 1.2 3.34 1.47 1.39.34 3.37.76 4.94 1.13 1.91.46 3.81.04 5.72.4 2.22.42 4.14 1.75 6.4 2.18 2.52.48 5.14.16 7.64.77 2.28.55 3.67 1.2 6.03 1.22 3.53.03 7.46.5 10.94.1 1.85-.21 2.88-1.15 4.98-.23 1.4.61 2.24 2.5 4.14 1.64-2.01-.81-.24-3.95 1.97-1.55.53-1.35.87-2.1 2.33-2.54-.07 1.32-.29 2.65 1.4 2.92l.38-2.76c3.66 2.8 4.53 3.78 7.99.37-.1 1.12-.57 2.38.56 3.17l2.18-3.62c1.22 3.89 7.07 2.55 9.9 1.86 1.1-.27 4.13-.69 4.85-1.59.5-.62.43-1.11.62-1.5.16-.34-1.7-1.17-.12-1.66 1.2-.37 2.13 2.25 3.53 2.14 1.25-.09 1.75-2.2 2.65-2.63.09-.04.7.85 1.12.65.66-.3 1.03-1.1 1.76-1.39 1.57-.61 3.6-.46 5.36-1.19 2.23-.92 4.48-1.36 6.76-2.12 2.89-.97 4.2-2.87 6.54-4.42.55-.36 1.12-.15 1.66-.4.73-.35 1.5-1.17 2.36-1.55 2.71-1.2 5.03-2.02 7.6-3.68 2.3-1.48 5.33-2.58 7.38-4.36 1.7-1.48 2.62-3.64 4.33-5.14 2.45-2.16 8.8-4.88 7.77-9.1 4.11.63 5.12-2.03 6.63-4.97 1.43-2.79 4.37-3.63 6.3-6.17.83-1.1 2.17-2.63 2.62-3.89.28-.74-.4-1.52-.22-2.03.85-2.35 4.14-3.37 5.66-5.49 1.94-2.69 2.56-6.1 4.18-8.86.31-.54 1.1-.87 1.4-1.45.2-.37-.21-1.3.03-1.66.56-.87 1.45-1.17 2.01-1.97 1.37-1.95 1.62-4.72 2.85-6.93.3-.55 1.36-2.07 1.5-2.4.44-1.08.3-1.8.53-3 .07-.37.78-2.48.92-2.78.45-.94.89-1.08 1.58-2.1 1.73-2.6 2.8-6.65 2.95-9.78.06-1.33-.39-2.7.1-3.98.41-1.1 1.69-1.77 2.17-2.92 1.27-3.01 1.06-7.27 1.41-10.5.38-3.51 1.5-6.97 1.81-10.46.15-1.69-.64-3.18-.58-4.77.07-1.82 1.01-2.16 1.38-3.68.41-1.73-.2-3.72.17-5.58.35-1.72.85-3.32 1-5.09.37-4.61-.16-9.43-.36-14.05-.08-1.78-.31-3.65.16-5.4.38-1.41 1.94-3 1.88-4.52-.15-4.73-3.93-.64-6.1-.96-2.53-.38-3-6.05-3.66-8.2l-4.88-15.75c7.75-2.02 15.81-1.44 23.73-1.98 7.78-.54 15.37-2.23 22.91-4.13 6.37-1.6 13.34-2.53 19.06-5.96 4.8-2.87 8.77-9.24 5.96-14.85M169.72 220c3.1-1.6 2.32-3.84 4.6-5.9 12.74-11.6 27.7-21.7 42.7-30.06 15.79-8.8 33.51-12.52 49.66-20.32 2.17-1.05 4.99-2.7 4.18-5.61-.95-3.42-4.2-1.85-6.52-1.04-7.72 2.69-15.94 3.7-23.77 6.06-16.72 5.03-32.37 13.71-46.54 23.88a166 166 0 0 0-23.16 19.78c-2.6 2.7-6.05 5.86-6.72 9.75-.84 4.82 2.01 5.31 5.57 3.46"/><path d="M218 522.89c-.08-4.26-4.71-2.71-7.1-2.14-9.7 2.33-18.36 4.1-26.95 9.5-15.92 10-28 25.2-35.8 42.02-1.04 2.24-5.23 9.33-1.87 11.44 2.21 1.4 3.55-2.66 4.38-4.16 4.2-7.67 9.84-14.45 15.5-21.1 12.57-14.79 27.68-24.17 45.76-31.02 2.21-.84 6.13-1.45 6.08-4.54M753.98 418.3c-3.35-6.74-8.78-15.07-16.28-17.85-4.16-1.54-6.61 1-5.38 5.26.98 3.38 4.25 5.04 6.7 7.28 6.28 5.77 10.15 14.39 12.45 22.39 2.43 8.46 2.91 17.64 2.87 26.4-.03 4.62-1.26 8.64-1.93 13.14-.26 1.77-.71 5.67 1.32 6.77 4.5 2.45 6.59-10.33 7.05-12.8 1.7-9.06 1.53-17.4.1-26.45-1.3-8.28-3.14-16.56-6.9-24.13M741.1 94c1.83-2.48.49-5.94 1.03-8.76.58-2.95 2.28-5.94 3.72-8.52a177 177 0 0 1 10.3-16.26c3.82-5.37 8.48-9.95 12.54-15.11 1.38-1.75 3.81-4.25 3.22-6.35-.96-3.4-3.06-1.74-4.73-.31-9.17 7.8-17.25 17.4-23.77 27.5-3.1 4.8-6.02 10.05-7.05 15.73-.53 2.94-.53 6 .34 8.88.55 1.8 2.2 6.16 4.4 3.2M175.98 509.94c4.6-.42 9.22-.58 13.83-.81 3.4-.18 7.24.03 10.37-1.6 3.15-1.66 1.78-4.13-.84-4.5-1.5-.21-4.04.8-5.66.87-1.74.08-3.5.03-5.25.03-5.1.02-10.61-.02-15.54 1.68-1.6.55-4.04 1.41-4.7 3.25-1.42 3.93 5.66 1.28 7.8 1.08M216.22 150c6.67-.8 13.12-2.8 19.7-4.07 6.25-1.22 7.31-6.14-.09-5.92-2.48.07-26.44 4.62-19.61 9.99m551.41 247.16c-4.49-1.12-2.17 3.85-.78 5.4 2.56 2.83 3.97 4.96 4.73 8.75.44 2.21.03 7.2 1.9 8.88 1.84 1.66 1.97.56 2.3-1.49.92-5.78-.92-19.73-8.15-21.54M718.4 82.47c1.28-1.35-.08-7.2.07-8.92.18-2.07.67-3.83 1.3-5.78.3-.95 1.8-4.29 1-5.33-1.14-1.43-3.02 1-3.61 1.95-1.94 3.11-2.39 8.3-2.07 11.8.12 1.27.89 8.86 3.32 6.28M454.44 576.13c.21-3.31 3.4-5.61 3.41-9.14.02-3.96-2.65-5.67-5.97-3.1-2 1.55-3.56 5.34-6.27 5.83-5.43 1-7.56-8.76-12.91-7.63-4.63.98-2.2 8.93-.8 11.62 1.48 2.84 4.17 4.84 3.3 8.34-1.05 4.16-4.61 6.55-3.22 11.3 2.57 8.81 8.17.57 11.54-2.2 2.4-1.98 3.84-1.63 6.17.31 3.2 2.65 5.63 4.45 9.5 6.24 3.41 1.58 6.7 2.68 6.8-2.61.1-4.16-3.05-8.3-5.8-11.12-2.3-2.34-5.98-4.14-5.75-7.84m-59.78-13.15c-4-4.25-9.04 6.6-12.26 7.8-5.23 1.95-6.44-8.48-11.25-8.16-3.75.26-3.45 5.63-2.64 8.08.88 2.64 3.51 4.8 3.95 7.5.68 4.13-7.16 12.41-1.69 16.4 4.67 3.42 6.4-8.11 12.24-3.4 2.86 2.3 10.88 10.9 14.85 6.62 4.7-5.05-6.47-13.69-8.5-17.53-2.76-5.21 11.15-11.07 5.3-17.3m96.71-147.89c-1.15-.5-3 .34-4.24.28-1.33-.05-2.71-.66-4.02-.88-2.85-.49-7.87.22-9.9-2.32-2.05-2.6-.49-7.8-1.37-10.95-.48-1.72-1.03-3.83-3.34-3.07-2.68.89-2.62 5.8-2.94 7.97-.47 3.18-.85 5.61-4.05 6.74-2.37.84-4.86.42-6.78 2.37-1.4 1.42-2.35 4.03-1.25 5.9 1.65 2.8 5.22 1.34 7.7 2.23 3.78 1.35 2.89 7.52 3.66 11.07.5 2.28 1.59 8.66 4.86 8.56 4.46-.14 2.73-9.1 2.48-11.72-.25-2.66-.85-4.91 2.12-5.74 2.5-.7 6 .6 8.58.59 3.27-.03 7.11-.84 9.08-3.77 1.13-1.67 1.84-6.18-.6-7.25m163.98 110.34c7.1.62 2.8 9.36 7.5 12.84 4.5 3.31 5.1-5.84 5.1-8.45 0-6.33 7.7-4 12.38-5.04 4-.9 8.37-5.05 3.6-8.59-3.46-2.55-9.17-1.37-13.17-2.04-5.43-.92-3.82-4.54-3.94-8.71-.04-1.53-.57-6.99-2.54-7.42-3.62-.78-3.84 9.37-4.08 11.3-1.03 8.19-6.65 3.2-11.11 7.3-5.84 5.36 2.03 8.45 6.26 8.81M317.92 372.96c-11.09 9.09-23.68 7.79-33.82-2-4.29-4.13-6.88-8.3-6.5-14.35.35-5.44 1.95-11.46 6.3-15.14 3.68-3.1 10.6-4.21 15.25-4.65 6.52-.6 12.35 2.95 16.86 7.38 3.93 3.86 8.51 8.78 9.12 14.51.64 6.03-2.8 10.63-7.21 14.25m1.68-36.15c-9.94-9.57-27.57-8.61-37.84.12-11.52 9.8-13.49 28.21-2.42 38.95 11.67 11.32 27.08 10.1 39.43.7 6.62-5.03 10.22-11.49 11.14-19.77.87-7.84-4.87-14.76-10.3-20M511.85 172c-1.11 3.63-.34 7.49-.14 11.18-3.15-1.97-5.11-5.49-8.5-7.12-1.62 4.49 6.47 17.31 11.56 13.1 4.65-3.84 1.22-14.58-2.92-17.16m16.55 22.11c-2.52.94-4.85.68-7.32 1.16-1.64.31-1.85-.62-2.06 1.25-.45 4 5.99 5.53 8.89 5.48 3.53-.07 7.41-2.45 7.07-6.32-.36-4.04-3.86-2.59-6.59-1.57m2.06-16.76c-1.14-1.04-3.76-4.94-5.69-4.27-1.47.5-.43 2.27 0 3.15 1.62 3.31 4.8 6.13 7.34 8.78-1.88.67-5.5 1.1-4.55 4 .88 2.65 4.87 2.24 6.78 1.13 6.55-3.84-.6-9.82-3.88-12.8m6.61-6.27c.44 1.82.69 3.55-.3 5.26l-5.45-9.78c-4.39 1.8 3.3 15.89 7.78 14.33 3.1-1.08 1.61-7.7 1.12-9.78-.26-1.12-.88-4.66-2.43-5.02-3.04-.71-1.06 3.64-.72 4.99"/><path d="M312.17 368.27c-2.53-1.87-6.72 2.5-9.4 2.51-5.4.03-2.45-6.3-5.83-8.36-1.77-1.07-9.15.01-7.98-4.42.7-2.67 3.44-.75 4.94-2.38 1.89-2.04-.8-3.67-2.47-4.5.73-.99 4.96-1.42 6.03-.74 1.83 1.17 1.72 4.68 3.4 6.49 2.2-2.79 1-6.3 3.33-8.8.9-.97 3.55-1.7 2.52-3.43-.6-1.01-3.2-.68-4.1-1.48-.78-.7-.74-2.95-2-3.14-2.05-.3-2 2.83-2.62 3.74-1.85 2.73-10.01 1.79-6.63 7.32-2.26-1.13-8.4-2.02-7.2 1.9.3 1.01 1.46 1.62 1.75 2.77.25.99-.3 2.4-.36 3.4-.1 1.88-.24 4.1 1.15 5.6 1.92 2.1 4.49.58 6.54 1.48 2.8 1.24 1.8 3.8 3.28 6.06 1.93 2.94 4.91 2.03 7.65 1.14 3.27-1.06 3.79-1.15 6.18 1.57 1.1-1.41 4.1-5.06 1.82-6.73"/><path d="M316.57 356.8c-2.64-.5-1.6-8.36-4.81-4.94-1.2 1.28.03 3.78-1.32 5.15-.9.92-2.04.38-2.95.98-.8.54-1.01 1.58-1.49 2.38 1.7.76 3 .86 4.82.53 0 1.36-.9 5.38 1.42 5.08 2.17-.27 1.56-4.3 2.66-5.56 1.12-1.27 5.63-.68 6.05-2.47.52-2.22-3.23-.95-4.38-1.16"/></g></g></svg>